<svg width="25" height="24" viewBox="0 0 25 24" fill="none" xmlns="http://www.w3.org/2000/svg">
<path d="M18.54 13.55C18.12 13.96 17.88 14.55 17.94 15.18C18.03 16.26 19.02 17.05 20.1 17.05H22V18.24C22 20.31 20.31 22 18.24 22H8.13C8.44 21.74 8.71 21.42 8.92 21.06C9.29 20.46 9.5 19.75 9.5 19C9.5 16.79 7.71 15 5.5 15C4.56 15 3.69 15.33 3 15.88V11.51C3 9.44001 4.69 7.75 6.76 7.75H18.24C20.31 7.75 22 9.44001 22 11.51V12.95H19.98C19.42 12.95 18.91 13.17 18.54 13.55Z" stroke="#1F2937" stroke-width="1.5" stroke-linecap="round" stroke-linejoin="round"/>
<path opacity="0.4" d="M3 12.4101V7.8401C3 6.6501 3.73 5.59006 4.84 5.17006L12.78 2.17006C14.02 1.70006 15.35 2.62009 15.35 3.95009V7.75008" stroke="#1F2937" stroke-width="1.5" stroke-linecap="round" stroke-linejoin="round"/>
<path d="M23.0598 13.9699V16.03C23.0598 16.58 22.6198 17.0299 22.0598 17.0499H20.0998C19.0198 17.0499 18.0298 16.2599 17.9398 15.1799C17.8798 14.5499 18.1198 13.9599 18.5398 13.5499C18.9098 13.1699 19.4198 12.95 19.9798 12.95H22.0598C22.6198 12.97 23.0598 13.4199 23.0598 13.9699Z" stroke="#1F2937" stroke-width="1.5" stroke-linecap="round" stroke-linejoin="round"/>
<path opacity="0.4" d="M7.5 12H14.5" stroke="#1F2937" stroke-width="1.5" stroke-linecap="round" stroke-linejoin="round"/>
<path d="M9.5 19C9.5 19.75 9.29 20.46 8.92 21.06C8.71 21.42 8.44 21.74 8.13 22C7.43 22.63 6.51 23 5.5 23C4.04 23 2.77 22.22 2.08 21.06C1.71 20.46 1.5 19.75 1.5 19C1.5 17.74 2.08 16.61 3 15.88C3.69 15.33 4.56 15 5.5 15C7.71 15 9.5 16.79 9.5 19Z" stroke="#1F2937" stroke-width="1.5" stroke-miterlimit="10" stroke-linecap="round" stroke-linejoin="round"/>
<path d="M6.56922 20.0399L4.44922 17.9299" stroke="#1F2937" stroke-width="1.5" stroke-miterlimit="10" stroke-linecap="round" stroke-linejoin="round"/>
<path d="M6.54969 17.96L4.42969 20.0699" stroke="#1F2937" stroke-width="1.5" stroke-miterlimit="10" stroke-linecap="round" stroke-linejoin="round"/>
</svg>
