<svg width="13" height="14" viewBox="0 0 13 14"  xmlns="http://www.w3.org/2000/svg">
<path fill-rule="evenodd" clip-rule="evenodd" d="M3.0272 4.94088H0.421384V13.3331H3.0272V4.94088ZM3.24032 2.28256C3.24032 1.44818 2.56222 0.769043 1.72914 0.769043C0.891207 0.769043 0.217957 1.44818 0.217957 2.28256C0.217957 3.11693 0.891207 3.79607 1.72914 3.79607C2.56222 3.79607 3.24032 3.11693 3.24032 2.28256ZM7.15871 4.94086H4.66914V13.3331H7.27011V9.18064C7.27011 8.08916 7.47354 7.02679 8.82972 7.02679C10.1665 7.02679 10.1811 8.27835 10.1811 9.2534V13.3331H12.782V8.73434C12.782 6.47378 12.2928 4.73712 9.65797 4.73712C8.38896 4.73712 7.54135 5.43081 7.19261 6.09055H7.15871V4.94086Z"/>
</svg>
