<svg width="16" height="16" viewBox="0 0 16 16"  xmlns="http://www.w3.org/2000/svg">
<g clip-path="url(#clip0_1811_5402)">
<path d="M15.9693 2.92113C15.3793 3.18702 14.7493 3.36816 14.086 3.45086C14.762 3.03323 15.282 2.37501 15.528 1.58965C14.894 1.96899 14.1913 2.24514 13.4433 2.39893C12.846 1.74343 11.9947 1.33333 11.0493 1.33333C9.238 1.33333 7.76933 2.83911 7.76933 4.69417C7.76933 4.96074 7.79933 5.21706 7.854 5.46244C5.12733 5.33053 2.71067 3.9881 1.09333 1.95874C0.808667 2.45224 0.649333 3.02571 0.649333 3.65045C0.649333 4.81925 1.22933 5.84658 2.108 6.45012C1.57 6.43235 1.064 6.28061 0.622667 6.02908V6.07078C0.622667 7.70093 1.75133 9.06046 3.25333 9.37013C2.978 9.446 2.68733 9.487 2.38933 9.487C2.18 9.487 1.97933 9.46646 1.77867 9.42819C2.19933 10.7631 3.40867 11.7365 4.848 11.7638C3.728 12.6653 2.30867 13.2026 0.78 13.2026C0.52 13.2026 0.260667 13.1869 0 13.1568C1.45933 14.1096 3.17867 14.6667 5.038 14.6667C11.074 14.6667 14.3707 9.54306 14.3707 5.10702C14.3707 4.96416 14.3707 4.81994 14.3607 4.6764C15.0013 4.20546 15.5607 3.61012 16.0007 2.9348L15.9693 2.92113Z" />
</g>
<defs>
<clipPath id="clip0_1811_5402">
<rect width="16" height="16" fill="white"/>
</clipPath>
</defs>
</svg>
