<svg width="11" height="11" viewBox="0 0 11 11" fill="none" xmlns="http://www.w3.org/2000/svg">
<path fill-rule="evenodd" clip-rule="evenodd" d="M0.853839 5.50775C0.853863 5.34865 0.917076 5.19607 1.02958 5.08357C1.14207 4.97107 1.29465 4.90786 1.45375 4.90784L5.09648 4.90784L5.09648 1.2651C5.0951 1.18545 5.10959 1.10631 5.13912 1.03231C5.16864 0.958315 5.21261 0.890939 5.26845 0.834116C5.3243 0.777293 5.3909 0.732161 5.46437 0.701353C5.53785 0.670545 5.61672 0.654678 5.69639 0.654678C5.77606 0.654678 5.85493 0.670545 5.92841 0.701353C6.00188 0.732161 6.06848 0.777293 6.12432 0.834116C6.18017 0.890939 6.22414 0.958315 6.25366 1.03231C6.28319 1.10631 6.29768 1.18545 6.2963 1.2651L6.2963 4.90784L9.93903 4.90784C10.0963 4.91057 10.2463 4.97498 10.3565 5.08718C10.4668 5.19939 10.5286 5.35042 10.5286 5.50775C10.5286 5.66507 10.4668 5.8161 10.3565 5.92831C10.2463 6.04051 10.0963 6.10492 9.93903 6.10765L6.2963 6.10765L6.2963 9.75039C6.29356 9.90769 6.22916 10.0576 6.11695 10.1679C6.00474 10.2782 5.85371 10.34 5.69639 10.34C5.53907 10.34 5.38804 10.2782 5.27583 10.1679C5.16362 10.0576 5.09921 9.90769 5.09648 9.75039L5.09648 6.10765L1.45375 6.10765C1.29465 6.10763 1.14207 6.04442 1.02958 5.93192C0.917076 5.81942 0.853863 5.66684 0.853839 5.50775Z" fill="#374151"/>
</svg>
