<svg width="24" height="24" viewBox="0 0 24 24" fill="none" xmlns="http://www.w3.org/2000/svg">
<path d="M10.8001 2.3999C10.4818 2.3999 10.1766 2.52633 9.95157 2.75137C9.72653 2.97642 9.6001 3.28164 9.6001 3.5999C9.6001 3.91816 9.72653 4.22339 9.95157 4.44843C10.1766 4.67347 10.4818 4.7999 10.8001 4.7999H13.2001C13.5184 4.7999 13.8236 4.67347 14.0486 4.44843C14.2737 4.22339 14.4001 3.91816 14.4001 3.5999C14.4001 3.28164 14.2737 2.97642 14.0486 2.75137C13.8236 2.52633 13.5184 2.3999 13.2001 2.3999H10.8001Z" fill="#1F2937"/>
<path fill-rule="evenodd" clip-rule="evenodd" d="M4.7998 6.0001C4.7998 5.36358 5.05266 4.75313 5.50275 4.30304C5.95284 3.85295 6.56329 3.6001 7.1998 3.6001C7.1998 4.55488 7.57909 5.47055 8.25422 6.14568C8.92935 6.82081 9.84503 7.2001 10.7998 7.2001H13.1998C14.1546 7.2001 15.0703 6.82081 15.7454 6.14568C16.4205 5.47055 16.7998 4.55488 16.7998 3.6001C17.4363 3.6001 18.0468 3.85295 18.4969 4.30304C18.9469 4.75313 19.1998 5.36358 19.1998 6.0001V19.2001C19.1998 19.8366 18.9469 20.4471 18.4969 20.8972C18.0468 21.3472 17.4363 21.6001 16.7998 21.6001H7.1998C6.56329 21.6001 5.95284 21.3472 5.50275 20.8972C5.05266 20.4471 4.7998 19.8366 4.7998 19.2001V6.0001ZM8.3998 10.8001C8.08155 10.8001 7.77632 10.9265 7.55128 11.1516C7.32623 11.3766 7.1998 11.6818 7.1998 12.0001C7.1998 12.3184 7.32623 12.6236 7.55128 12.8486C7.77632 13.0737 8.08155 13.2001 8.3998 13.2001H8.41181C8.73006 13.2001 9.03529 13.0737 9.26033 12.8486C9.48538 12.6236 9.6118 12.3184 9.6118 12.0001C9.6118 11.6818 9.48538 11.3766 9.26033 11.1516C9.03529 10.9265 8.73006 10.8001 8.41181 10.8001H8.3998ZM11.9998 10.8001C11.6815 10.8001 11.3763 10.9265 11.1513 11.1516C10.9262 11.3766 10.7998 11.6818 10.7998 12.0001C10.7998 12.3184 10.9262 12.6236 11.1513 12.8486C11.3763 13.0737 11.6815 13.2001 11.9998 13.2001H15.5998C15.9181 13.2001 16.2233 13.0737 16.4483 12.8486C16.6734 12.6236 16.7998 12.3184 16.7998 12.0001C16.7998 11.6818 16.6734 11.3766 16.4483 11.1516C16.2233 10.9265 15.9181 10.8001 15.5998 10.8001H11.9998ZM8.3998 15.6001C8.08155 15.6001 7.77632 15.7265 7.55128 15.9516C7.32623 16.1766 7.1998 16.4818 7.1998 16.8001C7.1998 17.1184 7.32623 17.4236 7.55128 17.6486C7.77632 17.8737 8.08155 18.0001 8.3998 18.0001H8.41181C8.73006 18.0001 9.03529 17.8737 9.26033 17.6486C9.48538 17.4236 9.6118 17.1184 9.6118 16.8001C9.6118 16.4818 9.48538 16.1766 9.26033 15.9516C9.03529 15.7265 8.73006 15.6001 8.41181 15.6001H8.3998ZM11.9998 15.6001C11.6815 15.6001 11.3763 15.7265 11.1513 15.9516C10.9262 16.1766 10.7998 16.4818 10.7998 16.8001C10.7998 17.1184 10.9262 17.4236 11.1513 17.6486C11.3763 17.8737 11.6815 18.0001 11.9998 18.0001H15.5998C15.9181 18.0001 16.2233 17.8737 16.4483 17.6486C16.6734 17.4236 16.7998 17.1184 16.7998 16.8001C16.7998 16.4818 16.6734 16.1766 16.4483 15.9516C16.2233 15.7265 15.9181 15.6001 15.5998 15.6001H11.9998Z" fill="#1F2937"/>
</svg>
