<svg width="24" height="24" viewBox="0 0 24 24" fill="none" xmlns="http://www.w3.org/2000/svg">
<path d="M11 4C10.4696 4 9.96086 4.21071 9.58579 4.58579C9.21071 4.96086 9 5.46957 9 6V14C9 14.5304 9.21071 15.0391 9.58579 15.4142C9.96086 15.7893 10.4696 16 11 16H17C17.5304 16 18.0391 15.7893 18.4142 15.4142C18.7893 15.0391 19 14.5304 19 14V8.414C18.9999 7.88361 18.7891 7.37499 18.414 7L16 4.586C15.625 4.2109 15.1164 4.00011 14.586 4H11Z" />
<path d="M5 10C5 9.46957 5.21071 8.96086 5.58579 8.58579C5.96086 8.21071 6.46957 8 7 8V18H15C15 18.5304 14.7893 19.0391 14.4142 19.4142C14.0391 19.7893 13.5304 20 13 20H7C6.46957 20 5.96086 19.7893 5.58579 19.4142C5.21071 19.0391 5 18.5304 5 18V10Z" />
</svg>
