<svg width="9" height="8" viewBox="0 0 9 8" fill="none" xmlns="http://www.w3.org/2000/svg">
<path fill-rule="evenodd" clip-rule="evenodd" d="M7.09019 1.16022C6.44352 0.513548 5.81019 0.496882 5.14685 1.16022L4.74352 1.56355C4.71019 1.59688 4.69685 1.65022 4.71019 1.69688C4.96352 2.58022 5.67019 3.28688 6.55352 3.54022C6.56685 3.54355 6.58019 3.54688 6.59352 3.54688C6.63019 3.54688 6.66352 3.53355 6.69019 3.50688L7.09019 3.10355C7.42019 2.77688 7.58019 2.46022 7.58019 2.14022C7.58352 1.81022 7.42352 1.49022 7.09019 1.16022ZM7.81836 7.3335H1.81836C1.68169 7.3335 1.56836 7.22016 1.56836 7.0835C1.56836 6.94683 1.68169 6.8335 1.81836 6.8335H7.81836C7.95503 6.8335 8.06836 6.94683 8.06836 7.0835C8.06836 7.22016 7.95503 7.3335 7.81836 7.3335ZM5.7417 3.69676C5.8317 3.7501 5.92503 3.79676 6.0217 3.84343C6.1518 3.89981 6.18947 4.07232 6.08921 4.17258L4.2117 6.0501C4.1717 6.09343 4.08836 6.13343 4.02836 6.14343L2.74836 6.32343C2.70836 6.3301 2.66836 6.33343 2.62836 6.33343C2.44836 6.33343 2.2817 6.2701 2.1617 6.15343C2.0217 6.0101 1.95836 5.79676 1.9917 5.5701L2.1717 4.29343C2.1817 4.23676 2.2217 4.15343 2.26503 4.1101L4.13945 2.23568C4.24176 2.13337 4.41384 2.17232 4.47503 2.30343C4.5217 2.39676 4.56836 2.48676 4.6217 2.57676C4.66503 2.6501 4.7117 2.72343 4.7517 2.77343C4.79839 2.84502 4.85089 2.9079 4.88478 2.94848C4.88718 2.95135 4.88949 2.95412 4.8917 2.95676C4.89641 2.96283 4.90086 2.96862 4.90503 2.97406C4.9215 2.99552 4.93372 3.01145 4.9417 3.01676C5.0517 3.1501 5.17503 3.2701 5.28503 3.36343C5.3117 3.3901 5.33503 3.4101 5.3417 3.41343C5.40503 3.46676 5.4717 3.5201 5.52836 3.55676C5.59836 3.60676 5.66836 3.65343 5.7417 3.69676Z" fill="#4B5563"/>
</svg>
