<svg width="18" height="18" viewBox="0 0 18 18" fill="none" xmlns="http://www.w3.org/2000/svg">
<path fill-rule="evenodd" clip-rule="evenodd" d="M16.1998 8.9998C16.1998 10.9094 15.4412 12.7407 14.091 14.091C12.7407 15.4412 10.9094 16.1998 8.9998 16.1998C7.09025 16.1998 5.2589 15.4412 3.90864 14.091C2.55837 12.7407 1.7998 10.9094 1.7998 8.9998C1.7998 7.09025 2.55837 5.2589 3.90864 3.90864C5.2589 2.55837 7.09025 1.7998 8.9998 1.7998C10.9094 1.7998 12.7407 2.55837 14.091 3.90864C15.4412 5.2589 16.1998 7.09025 16.1998 8.9998ZM9.8998 12.5998C9.8998 12.8385 9.80498 13.0674 9.6362 13.2362C9.46742 13.405 9.2385 13.4998 8.9998 13.4998C8.76111 13.4998 8.53219 13.405 8.36341 13.2362C8.19463 13.0674 8.0998 12.8385 8.0998 12.5998C8.0998 12.3611 8.19463 12.1322 8.36341 11.9634C8.53219 11.7946 8.76111 11.6998 8.9998 11.6998C9.2385 11.6998 9.46742 11.7946 9.6362 11.9634C9.80498 12.1322 9.8998 12.3611 9.8998 12.5998ZM8.9998 4.4998C8.76111 4.4998 8.53219 4.59463 8.36341 4.76341C8.19463 4.93219 8.0998 5.16111 8.0998 5.3998V8.9998C8.0998 9.2385 8.19463 9.46742 8.36341 9.6362C8.53219 9.80498 8.76111 9.8998 8.9998 9.8998C9.2385 9.8998 9.46742 9.80498 9.6362 9.6362C9.80498 9.46742 9.8998 9.2385 9.8998 8.9998V5.3998C9.8998 5.16111 9.80498 4.93219 9.6362 4.76341C9.46742 4.59463 9.2385 4.4998 8.9998 4.4998Z" />
</svg>
