<svg width="24" height="24" viewBox="0 0 24 24" fill="none" xmlns="http://www.w3.org/2000/svg">
  <path fill-rule="evenodd" clip-rule="evenodd" d="M14.5084 2.04049C14.8408 2.12809 15.1192 2.35487 15.274 2.66327C15.8536 3.82367 16.2868 4.52811 16.7224 5.09931C17.164 5.67771 17.6296 6.15048 18.34 6.85968C19.9792 8.50008 20.8 10.6517 20.8 12.7997C20.8 14.9477 19.9792 17.0993 18.34 18.7397C15.0592 22.0193 9.7408 22.0193 6.46 18.7397C4.8208 17.0993 4 14.9477 4 12.7997C4 10.6517 4.8208 8.50008 6.46 6.85968C6.8032 6.51648 7.3192 6.41448 7.768 6.60048C8.2168 6.78528 8.5084 7.22332 8.5084 7.70812C8.5084 9.05212 8.5924 10.0757 8.986 10.8929C9.202 11.3417 9.53921 11.7809 10.12 12.1733C10.2592 10.9001 10.5136 9.34851 10.8568 7.87731C11.1268 6.71811 11.4628 5.5613 11.8636 4.5965C12.064 4.1129 12.2908 3.65447 12.5476 3.25727C12.7972 2.87087 13.1188 2.47853 13.534 2.20133C13.8208 2.01053 14.176 1.95169 14.5084 2.04049ZM14.9452 17.7449C13.54 19.1513 11.26 19.1513 9.8548 17.7449C9.1516 17.0429 8.8 16.1213 8.8 15.1997C8.8 15.1997 9.8548 15.7997 11.8 15.7997C11.8 14.5997 12.4 10.9997 13.3 10.3997C13.9 11.5997 14.2432 11.9513 14.9452 12.6545C15.6484 13.3565 16 14.2781 16 15.1997C16 16.1213 15.6484 17.0429 14.9452 17.7449Z" />
</svg>
