<svg width="5" height="5" viewBox="0 0 5 5"  xmlns="http://www.w3.org/2000/svg">
<path d="M3.439 0.522053C3.40777 0.554987 3.31562 0.808266 3.32265 0.844336C3.33748 0.925103 3.45072 0.940002 3.48586 0.866292C3.51475 0.805129 3.58426 0.605956 3.58426 0.585568C3.58426 0.555771 3.56317 0.520484 3.53974 0.509506C3.5046 0.493039 3.46243 0.498528 3.439 0.522053Z" />
<path d="M2.06973 0.693715C2.04006 0.704693 1.96665 0.775267 1.59103 1.15087L1.14746 1.5947L1.19354 1.64175C1.2685 1.71938 1.29584 1.79387 1.29662 1.91777C1.29662 1.95697 1.29974 1.99148 1.30365 1.99461C1.31224 1.99932 2.28214 1.00973 2.30479 0.972087C2.31338 0.957972 2.32431 0.927391 2.329 0.90465C2.34462 0.82702 2.30167 0.73998 2.23138 0.703125C2.18921 0.681953 2.11581 0.677248 2.06973 0.693715Z" />
<path d="M3.83437 0.815085C3.7758 0.851155 3.62352 0.964856 3.60868 0.98446C3.59775 0.997791 3.59229 1.01583 3.59229 1.03935C3.59229 1.08797 3.62352 1.12012 3.67038 1.12012C3.7102 1.12012 3.71411 1.11855 3.83828 1.02994C3.95776 0.944469 3.96713 0.935059 3.97181 0.895068C3.98119 0.81979 3.90231 0.773525 3.83437 0.815085Z" />
<path d="M2.65677 0.897581C2.62475 0.909343 2.49121 1.02696 2.49121 1.04265C2.49121 1.04657 2.49746 1.05206 2.50527 1.05519C2.59898 1.08656 2.67941 1.15556 2.72158 1.23947C2.73642 1.27005 2.74892 1.29985 2.74892 1.30534C2.74892 1.32572 2.76141 1.31631 2.82467 1.25123C2.90042 1.17282 2.91603 1.13831 2.91135 1.05833C2.90901 1.01285 2.90432 0.997167 2.8848 0.969722C2.8356 0.898365 2.73798 0.867784 2.65677 0.897581Z" />
<path d="M0.612297 1.18771C0.575593 1.20104 0.529519 1.24182 0.511557 1.27789C0.503748 1.292 0.466264 1.54371 0.410037 1.95382C0.360839 2.31217 0.318669 2.61956 0.315545 2.63602C0.312422 2.65798 0.296803 2.68229 0.262443 2.72228C0.125781 2.88146 0.125 2.88225 0.125 2.92145V2.95831L0.242139 3.07593L0.360058 3.19434L0.394419 3.1567C0.413942 3.13553 0.42956 3.11435 0.42956 3.10965C0.42956 3.10416 0.470168 2.80618 0.519367 2.44626C0.602925 1.83384 0.610735 1.78836 0.63182 1.7421C0.672428 1.65663 0.752082 1.58449 0.839545 1.55391L0.87703 1.54136L0.872344 1.43079C0.867659 1.33434 0.864535 1.31553 0.846574 1.27945C0.804404 1.19241 0.706007 1.15478 0.612297 1.18771Z" />
<path d="M2.37339 1.20738C2.35387 1.21051 2.32341 1.22149 2.30701 1.23247C2.29061 1.24345 2.05321 1.47712 1.78067 1.75157C1.50813 2.02602 1.27541 2.25578 1.2637 2.26205C1.25198 2.26832 1.23402 2.27303 1.22387 2.27303C1.20279 2.27303 1.16764 2.24872 1.15515 2.22441C1.15046 2.21579 1.14422 2.12953 1.14109 2.02759C1.13485 1.82763 1.1286 1.80019 1.08096 1.75236C1.0263 1.69747 0.929463 1.68257 0.85996 1.71864C0.81779 1.74059 0.776402 1.79078 0.766249 1.83234C0.762345 1.84802 0.720175 2.15227 0.671758 2.50827C0.624121 2.86427 0.582732 3.16225 0.58117 3.17166C0.578828 3.18028 0.53822 3.23282 0.491364 3.28771C0.392968 3.40377 0.390625 3.4069 0.390625 3.44689C0.390625 3.47591 0.404682 3.49081 0.900568 3.98795L1.40973 4.5H1.44565C1.47923 4.5 1.4886 4.49451 1.6073 4.40277C1.71976 4.31573 1.7385 4.30475 1.78614 4.29299C2.01026 4.23653 2.29452 4.07107 2.58502 3.83034C2.72637 3.71272 2.87396 3.57236 3.1793 3.2634C3.52135 2.91916 3.51666 2.92465 3.51666 2.84153C3.51666 2.76626 3.462 2.68784 3.39328 2.6651C3.35345 2.65177 3.26599 2.65883 3.23631 2.67686C3.22382 2.6847 3.1098 2.79448 2.98329 2.92073C2.8068 3.0956 2.74667 3.15049 2.72793 3.15519C2.69357 3.16225 2.65218 3.14108 2.63656 3.10814C2.62173 3.07756 2.62094 3.06188 2.63266 3.03914C2.63734 3.02973 2.80056 2.86114 2.99579 2.6651C3.36438 2.29342 3.37376 2.28244 3.38625 2.20481C3.3925 2.16325 3.37297 2.0966 3.34408 2.06131C3.31128 2.0221 3.2574 1.99701 3.20351 1.99623C3.11527 1.99466 3.12854 1.98368 2.72481 2.38751C2.36636 2.74665 2.35309 2.7592 2.32419 2.7592C2.26797 2.7592 2.23361 2.7247 2.23361 2.66667C2.23361 2.63922 2.25313 2.61884 2.68967 2.17893C3.16291 1.70374 3.16837 1.69747 3.18243 1.62062C3.19024 1.58063 3.17384 1.51947 3.14729 1.48183C3.10121 1.41909 2.99188 1.39008 2.91535 1.42223C2.89427 1.43086 2.7537 1.5673 2.42884 1.89272C2.17738 2.14443 1.96263 2.35458 1.95091 2.3585C1.88297 2.38438 1.81269 2.30753 1.84549 2.2448C1.85251 2.23225 2.01104 2.06837 2.19846 1.88096C2.38589 1.69355 2.54988 1.52495 2.56237 1.50692C2.60923 1.4387 2.60923 1.3446 2.56159 1.27795C2.52333 1.22463 2.4468 1.1964 2.37339 1.20738Z" />
<path d="M3.82109 1.27637C3.75158 1.28029 3.73909 1.28343 3.72191 1.29989C3.69536 1.32499 3.68911 1.36106 3.70473 1.39791C3.72581 1.44966 3.76564 1.45594 3.98196 1.44418C4.0741 1.43947 4.07879 1.43869 4.10066 1.41673C4.13111 1.38615 4.13345 1.32812 4.10534 1.30225C4.0702 1.26931 4.02569 1.26539 3.82109 1.27637Z" />
</svg>
