<svg width="17" height="21" viewBox="0 0 17 21"  xmlns="http://www.w3.org/2000/svg">
<path d="M8.49984 0.900024C6.59028 0.900024 4.75893 1.65859 3.40867 3.00886C2.05841 4.35912 1.29984 6.19047 1.29984 8.10002V12.4032L0.451442 13.2516C0.283671 13.4194 0.169423 13.6332 0.123142 13.866C0.0768608 14.0987 0.100624 14.34 0.191428 14.5592C0.282232 14.7784 0.436 14.9658 0.633292 15.0977C0.830584 15.2296 1.06254 15.3 1.29984 15.3H15.6998C15.9371 15.3 16.1691 15.2296 16.3664 15.0977C16.5637 14.9658 16.7175 14.7784 16.8083 14.5592C16.8991 14.34 16.9228 14.0987 16.8765 13.866C16.8303 13.6332 16.716 13.4194 16.5482 13.2516L15.6998 12.4032V8.10002C15.6998 6.19047 14.9413 4.35912 13.591 3.00886C12.2407 1.65859 10.4094 0.900024 8.49984 0.900024V0.900024ZM8.49984 20.1C7.54506 20.1 6.62939 19.7207 5.95426 19.0456C5.27913 18.3705 4.89984 17.4548 4.89984 16.5H12.0998C12.0998 17.4548 11.7206 18.3705 11.0454 19.0456C10.3703 19.7207 9.45462 20.1 8.49984 20.1Z"/>
</svg>
