<svg width="20" height="20" viewBox="0 0 20 20"  xmlns="http://www.w3.org/2000/svg">
<path fill-rule="evenodd" clip-rule="evenodd" d="M12.2932 16.7072C12.1057 16.5197 12.0004 16.2654 12.0004 16.0002C12.0004 15.735 12.1057 15.4807 12.2932 15.2932L14.5862 13.0002H9.00021C7.1437 13.0002 5.36322 12.2627 4.05047 10.95C2.73771 9.63721 2.00021 7.85673 2.00021 6.00021V4.00021C2.00021 3.735 2.10557 3.48064 2.29311 3.29311C2.48064 3.10557 2.735 3.00021 3.00021 3.00021C3.26543 3.00021 3.51978 3.10557 3.70732 3.29311C3.89486 3.48064 4.00021 3.735 4.00021 4.00021V6.00021C4.00021 7.3263 4.527 8.59807 5.46468 9.53575C6.40236 10.4734 7.67413 11.0002 9.00021 11.0002H14.5862L12.2932 8.70721C12.1977 8.61497 12.1215 8.50462 12.0691 8.38262C12.0167 8.26061 11.9891 8.12939 11.988 7.99661C11.9868 7.86384 12.0121 7.73216 12.0624 7.60926C12.1127 7.48636 12.1869 7.37471 12.2808 7.28082C12.3747 7.18693 12.4864 7.11267 12.6093 7.06239C12.7322 7.01211 12.8638 6.98681 12.9966 6.98796C13.1294 6.98912 13.2606 7.0167 13.3826 7.06911C13.5046 7.12152 13.615 7.1977 13.7072 7.29321L17.7072 11.2932C17.8947 11.4807 18 11.735 18 12.0002C18 12.2654 17.8947 12.5197 17.7072 12.7072L13.7072 16.7072C13.5197 16.8947 13.2654 17 13.0002 17C12.735 17 12.4807 16.8947 12.2932 16.7072Z" fill="#6B7280"/>
</svg>
