<svg width="14" height="14" viewBox="0 0 14 14" fill="none" xmlns="http://www.w3.org/2000/svg">
<path fill-rule="evenodd" clip-rule="evenodd" d="M5.4001 2.20022C4.5514 2.20022 3.73747 2.53736 3.13736 3.13748C2.53724 3.7376 2.2001 4.55153 2.2001 5.40022C2.2001 6.24892 2.53724 7.06285 3.13736 7.66296C3.73747 8.26308 4.5514 8.60022 5.4001 8.60022C6.24879 8.60022 7.06272 8.26308 7.66284 7.66296C8.26296 7.06285 8.6001 6.24892 8.6001 5.40022C8.6001 4.55153 8.26296 3.7376 7.66284 3.13748C7.06272 2.53736 6.24879 2.20022 5.4001 2.20022ZM0.600098 5.40022C0.600001 4.64479 0.778212 3.89999 1.12023 3.22642C1.46226 2.55284 1.95844 1.9695 2.56841 1.52384C3.17839 1.07818 3.88495 0.782792 4.63061 0.661689C5.37628 0.540586 6.14 0.597191 6.85967 0.826903C7.57933 1.05661 8.23462 1.45294 8.77223 1.98366C9.30984 2.51437 9.7146 3.16449 9.95358 3.88113C10.1926 4.59777 10.259 5.3607 10.1476 6.10786C10.0361 6.85503 9.74984 7.56534 9.3121 8.18102L13.1657 12.0346C13.3114 12.1855 13.3921 12.3876 13.3902 12.5973C13.3884 12.8071 13.3043 13.0078 13.156 13.1561C13.0076 13.3044 12.807 13.3885 12.5972 13.3904C12.3875 13.3922 12.1854 13.3116 12.0345 13.1658L8.1817 9.31302C7.46359 9.82365 6.61878 10.1268 5.73984 10.1891C4.8609 10.2515 3.98176 10.0707 3.19874 9.6666C2.41572 9.26249 1.75905 8.65064 1.30068 7.8981C0.842306 7.14556 0.599926 6.28137 0.600098 5.40022V5.40022Z" fill="#9CA3AF"/>
</svg>
