<svg width="67" height="48" viewBox="0 0 67 48" fill="none" xmlns="http://www.w3.org/2000/svg">
<path d="M56.28 20.7223C56.7092 19.6021 56.95 18.3773 56.95 17.1001C56.95 11.5517 52.4484 7.0501 46.9 7.0501C44.8377 7.0501 42.9114 7.67822 41.3202 8.74603C38.4203 3.72103 33.008 0.350098 26.8 0.350098C17.5456 0.350098 10.05 7.84572 10.05 17.1001C10.05 17.3828 10.0605 17.6654 10.0709 17.9481C4.20844 20.0104 0 25.6007 0 32.1751C0 40.4978 6.75234 47.2501 15.075 47.2501H53.6C61.0014 47.2501 67 41.2515 67 33.8501C67 27.3699 62.3937 21.9576 56.28 20.7223ZM41.1841 27.1501H34.3375V38.8751C34.3375 39.7963 33.5837 40.5501 32.6625 40.5501H27.6375C26.7162 40.5501 25.9625 39.7963 25.9625 38.8751V27.1501H19.1159C17.6189 27.1501 16.8756 25.3495 17.933 24.2921L28.967 13.2581C29.6161 12.609 30.6839 12.609 31.333 13.2581L42.367 24.2921C43.4244 25.3495 42.6706 27.1501 41.1841 27.1501Z" fill="#9CA3AF"/>
</svg>
