<svg width="20" height="20" viewBox="0 0 20 20" fill="none" xmlns="http://www.w3.org/2000/svg">
<path d="M8.0999 9.0501C8.85577 9.0501 9.58068 8.74983 10.1152 8.21535C10.6496 7.68087 10.9499 6.95596 10.9499 6.2001C10.9499 5.44423 10.6496 4.71932 10.1152 4.18484C9.58068 3.65036 8.85577 3.3501 8.0999 3.3501C7.34404 3.3501 6.61913 3.65036 6.08465 4.18484C5.55017 4.71932 5.2499 5.44423 5.2499 6.2001C5.2499 6.95596 5.55017 7.68087 6.08465 8.21535C6.61913 8.74983 7.34404 9.0501 8.0999 9.0501ZM8.0999 10.9501C9.61164 10.9501 11.0615 11.5506 12.1304 12.6196C13.1994 13.6885 13.7999 15.1384 13.7999 16.6501H2.3999C2.3999 15.1384 3.00044 13.6885 4.06939 12.6196C5.13835 11.5506 6.58817 10.9501 8.0999 10.9501ZM15.6999 7.1501C15.6999 6.89814 15.5998 6.65651 15.4217 6.47835C15.2435 6.30019 15.0019 6.2001 14.7499 6.2001C14.4979 6.2001 14.2563 6.30019 14.0782 6.47835C13.9 6.65651 13.7999 6.89814 13.7999 7.1501V8.1001H12.8499C12.5979 8.1001 12.3563 8.20019 12.1782 8.37835C12 8.55651 11.8999 8.79814 11.8999 9.0501C11.8999 9.30205 12 9.54369 12.1782 9.72185C12.3563 9.90001 12.5979 10.0001 12.8499 10.0001H13.7999V10.9501C13.7999 11.2021 13.9 11.4437 14.0782 11.6218C14.2563 11.8 14.4979 11.9001 14.7499 11.9001C15.0019 11.9001 15.2435 11.8 15.4217 11.6218C15.5998 11.4437 15.6999 11.2021 15.6999 10.9501V10.0001H16.6499C16.9019 10.0001 17.1435 9.90001 17.3217 9.72185C17.4998 9.54369 17.5999 9.30205 17.5999 9.0501C17.5999 8.79814 17.4998 8.55651 17.3217 8.37835C17.1435 8.20019 16.9019 8.1001 16.6499 8.1001H15.6999V7.1501Z" />
</svg>
